<?xml version="1.0" standalone="no"?>
<!DOCTYPE svg PUBLIC "-//W3C//DTD SVG 20010904//EN"
 "http://www.w3.org/TR/2001/REC-SVG-20010904/DTD/svg10.dtd">
<svg version="1.0" xmlns="http://www.w3.org/2000/svg"
 width="211.000000pt" height="211.000000pt" viewBox="0 0 211.000000 211.000000"
 preserveAspectRatio="xMidYMid meet">
<metadata>
Created by potrace 1.11, written by Peter Selinger 2001-2013
</metadata>
<g transform="translate(0.000000,211.000000) scale(0.100000,-0.100000)"
fill="#000000" stroke="none">
<path d="M4 1755 c26 -321 174 -598 411 -774 58 -43 152 -101 163 -101 5 0 23
11 41 24 l33 25 -59 29 c-108 55 -242 169 -320 273 -49 65 -112 189 -141 279
-23 69 -54 232 -46 239 5 6 145 2 194 -5 126 -18 256 -61 345 -115 59 -36 145
-114 193 -176 65 -83 137 -255 157 -370 l7 -43 68 0 69 0 11 56 c40 192 135
361 264 472 99 85 275 156 435 177 62 8 180 10 187 2 3 -3 -2 -45 -10 -95 -47
-273 -191 -497 -414 -645 -31 -21 -74 -45 -94 -55 -21 -9 -38 -20 -38 -24 0
-8 55 -48 67 -48 5 0 50 27 101 60 201 130 351 328 422 556 26 86 50 222 50
287 l0 49 -152 -5 c-169 -6 -254 -21 -373 -68 -171 -68 -318 -191 -402 -336
-47 -82 -99 -213 -109 -273 -8 -50 -16 -43 -34 30 -7 30 -29 93 -49 140 -106
246 -296 406 -567 476 -77 20 -134 27 -258 31 l-159 6 7 -78z"/>
<path d="M1018 975 c-2 -2 -26 -5 -53 -8 -72 -7 -199 -52 -269 -95 -122 -75
-235 -212 -279 -341 -26 -73 -35 -220 -16 -232 20 -12 158 -11 221 2 173 37
355 187 413 343 l19 48 12 -40 c47 -161 239 -315 438 -353 62 -11 177 -11 195
0 21 14 16 133 -10 216 -77 254 -326 441 -606 458 -35 2 -64 3 -65 2z m191
-101 c236 -68 420 -281 426 -494 0 -21 -101 -15 -179 11 -206 69 -332 219
-335 402 l-1 37 -69 0 -68 0 -1 -46 c-3 -137 -80 -256 -217 -339 -96 -58 -256
-97 -288 -72 -13 10 -13 20 -1 77 38 182 187 343 380 411 32 12 79 24 104 28
68 10 187 3 249 -15z"/>
</g>
</svg>
